<?xml version="1.0" encoding="UTF-8"?>
<svg xmlns="http://www.w3.org/2000/svg" xmlns:xlink="http://www.w3.org/1999/xlink" width="95px"
    viewBox="0 0 92 32" version="1.1">
    <symbol id="iconLogo" xmlns="http://www.w3.org/2000/svg"
        viewBox="0 0 93 32"
        fill="#ffffff">

        <path style=" stroke:none;fill-rule:nonzero;;fill-opacity:1;"
            d="M 3.605469 3.585938 L -0.0117188 7.183594 L 0.0273438 17.785156 L 0.0625 28.402344 L 2.769531 25.941406 C 4.246094 24.59375 6.234375 22.808594 7.171875 21.980469 L 8.863281 20.464844 L 9.632812 21.074219 C 10.851562 22.03125 12.082031 23.054688 12.851562 23.714844 C 13.238281 24.066406 13.609375 24.335938 13.6875 24.335938 C 13.75 24.335938 13.96875 24.15625 14.1875 23.933594 C 14.546875 23.546875 15.125 23.042969 17.433594 21.164062 C 18.046875 20.660156 19.460938 19.480469 20.5625 18.539062 L 22.578125 16.800781 L 22.011719 16.078125 C 21.691406 15.675781 21.460938 15.3125 21.484375 15.261719 C 21.523438 15.222656 21.910156 15.082031 22.34375 14.964844 C 23.820312 14.550781 29.425781 12.789062 29.671875 12.660156 C 30.105469 12.425781 29.824219 12.441406 28.863281 12.6875 C 28.335938 12.828125 27.796875 12.945312 27.683594 12.945312 C 27.476562 12.945312 27.464844 12.53125 27.425781 7.597656 C 27.386719 2.691406 27.375 2.226562 27.144531 1.8125 C 26.679688 0.917969 25.730469 0.15625 25.320312 0.3125 C 25.21875 0.347656 25.15625 0.335938 25.191406 0.273438 C 25.230469 0.207031 25.089844 0.128906 24.871094 0.078125 C 24.640625 0.0390625 20.589844 0 15.84375 0 L 7.210938 0 Z M 21.78125 6.304688 C 21.988281 6.589844 21.972656 7.144531 21.753906 7.457031 C 21.574219 7.6875 21.34375 7.703125 16.164062 7.742188 C 10.019531 7.78125 10.132812 7.792969 10.132812 6.875 C 10.132812 6.601562 10.210938 6.304688 10.300781 6.226562 C 10.503906 6.070312 13.726562 5.992188 18.472656 6.058594 C 21.203125 6.097656 21.640625 6.121094 21.78125 6.304688 Z M 21.703125 10.707031 C 21.832031 10.820312 21.933594 11.09375 21.933594 11.339844 C 21.933594 12.195312 22.253906 12.167969 13.351562 12.167969 C 6.082031 12.167969 5.324219 12.140625 5.105469 11.949219 C 4.824219 11.6875 4.808594 11.042969 5.09375 10.71875 C 5.285156 10.5 5.707031 10.484375 13.378906 10.484375 C 20.730469 10.484375 21.484375 10.511719 21.703125 10.707031 Z M 17.445312 15.015625 C 17.753906 15.328125 17.777344 15.882812 17.484375 16.207031 C 17.292969 16.425781 16.933594 16.441406 11.273438 16.441406 C 4.628906 16.441406 4.875 16.480469 4.875 15.597656 C 4.875 14.746094 4.757812 14.757812 11.3125 14.757812 C 17.023438 14.757812 17.203125 14.769531 17.445312 15.015625 Z M 17.703125 19.3125 C 17.703125 20.066406 17.652344 20.453125 17.585938 20.335938 C 17.40625 20.050781 16.035156 20.117188 15.519531 20.425781 C 15.304688 20.570312 15.007812 20.660156 14.878906 20.621094 C 14.699219 20.570312 14.636719 20.648438 14.585938 20.933594 C 14.558594 21.125 14.519531 20.765625 14.507812 20.117188 C 14.507812 19.46875 14.457031 18.746094 14.417969 18.523438 L 14.339844 18.121094 L 17.703125 18.121094 Z M 17.703125 19.3125 " />
        <path style=" stroke:none;fill-rule:nonzero;fill-opacity:1;"
            d="M 34.273438 3.066406 L 33.738281 3.121094 L 33.738281 8.945312 L 33.75 14.757812 L 36.171875 14.757812 L 36.171875 10.226562 L 36.867188 10.226562 C 37.417969 10.226562 37.648438 10.292969 37.90625 10.511719 C 38.085938 10.679688 38.6875 11.675781 39.238281 12.75 L 40.226562 14.691406 L 41.535156 14.730469 C 42.253906 14.746094 42.84375 14.730469 42.84375 14.707031 C 42.84375 14.667969 42.535156 14.070312 42.152344 13.371094 C 41.765625 12.671875 41.203125 11.613281 40.894531 11.003906 C 40.535156 10.292969 40.1875 9.8125 39.917969 9.617188 C 39.46875 9.320312 39.496094 9.28125 40.058594 9.140625 C 40.265625 9.085938 40.675781 8.800781 40.984375 8.480469 C 42.484375 6.976562 42.085938 4.402344 40.214844 3.457031 C 39.507812 3.105469 38.496094 2.976562 36.648438 3.003906 C 35.648438 3.015625 34.582031 3.042969 34.273438 3.066406 Z M 38.839844 5.253906 C 39.035156 5.410156 39.277344 5.773438 39.378906 6.058594 C 39.546875 6.539062 39.546875 6.667969 39.378906 7.144531 C 39.085938 7.988281 38.675781 8.207031 37.316406 8.257812 L 36.171875 8.3125 L 36.171875 4.894531 L 37.328125 4.945312 C 38.226562 4.984375 38.558594 5.0625 38.839844 5.253906 Z M 38.839844 5.253906 " />
        <path style=" stroke:none;fill-rule:nonzero;;fill-opacity:1;"
            d="M 78.414062 4.167969 L 77.351562 4.425781 L 77.351562 5.4375 C 77.351562 6.550781 77.3125 6.601562 76.503906 6.601562 L 76.066406 6.601562 L 76.066406 8.285156 L 77.324219 8.285156 L 77.375 10.769531 C 77.425781 13.539062 77.53125 13.980469 78.234375 14.484375 C 78.773438 14.875 79.964844 15.082031 80.824219 14.9375 L 81.519531 14.820312 L 81.597656 13.085938 L 80.980469 13.164062 C 80.480469 13.21875 80.300781 13.179688 80.042969 12.972656 C 79.722656 12.710938 79.722656 12.671875 79.683594 10.5 L 79.644531 8.285156 L 81.582031 8.285156 L 81.582031 6.613281 L 80.660156 6.574219 L 79.722656 6.539062 L 79.683594 5.203125 C 79.671875 4.480469 79.609375 3.882812 79.554688 3.894531 C 79.503906 3.910156 78.992188 4.027344 78.414062 4.167969 Z M 78.414062 4.167969 " />
        <path style=" stroke:none;fill-rule:nonzero;;fill-opacity:1;"
            d="M 45.320312 6.601562 C 43.945312 6.964844 43.871094 7.015625 44 7.597656 C 44.0625 7.871094 44.140625 8.246094 44.179688 8.441406 L 44.253906 8.789062 L 44.871094 8.519531 C 45.242188 8.347656 45.84375 8.21875 46.460938 8.179688 C 47.421875 8.128906 47.460938 8.128906 47.847656 8.519531 C 48.101562 8.789062 48.230469 9.035156 48.230469 9.308594 C 48.230469 9.695312 48.207031 9.707031 47.691406 9.707031 C 45.949219 9.722656 44.191406 10.355469 43.652344 11.171875 C 42.996094 12.128906 43.152344 13.515625 43.984375 14.277344 C 45.050781 15.25 46.71875 15.25 47.820312 14.292969 L 48.335938 13.851562 L 48.410156 14.304688 L 48.5 14.757812 L 50.476562 14.757812 L 50.4375 11.6875 C 50.398438 8.917969 50.375 8.570312 50.128906 8 C 49.988281 7.652344 49.695312 7.234375 49.488281 7.054688 C 48.65625 6.34375 46.972656 6.160156 45.320312 6.601562 Z M 48.230469 11.703125 C 48.230469 12.3125 48.179688 12.453125 47.847656 12.800781 C 47.152344 13.488281 46.140625 13.488281 45.628906 12.800781 C 45.101562 12.078125 45.769531 11.300781 47.039062 11.132812 C 48.320312 10.964844 48.230469 10.925781 48.230469 11.703125 Z M 48.230469 11.703125 " />
        <path style=" stroke:none;fill-rule:nonzero;;fill-opacity:1;"
            d="M 55.542969 6.484375 C 55.300781 6.5625 54.875 6.796875 54.621094 7.003906 C 54.363281 7.210938 54.121094 7.378906 54.082031 7.378906 C 54.042969 7.378906 54.003906 7.199219 54.003906 6.992188 L 54.003906 6.601562 L 51.824219 6.601562 L 51.824219 18.382812 L 54.132812 18.382812 L 54.132812 16.363281 C 54.132812 15.25 54.171875 14.367188 54.234375 14.394531 C 55.351562 14.976562 55.605469 15.042969 56.492188 14.992188 C 58.019531 14.886719 58.980469 14.226562 59.636719 12.828125 C 59.941406 12.167969 59.96875 11.960938 59.96875 10.550781 C 59.96875 9.203125 59.929688 8.90625 59.671875 8.347656 C 59.097656 7.082031 58.199219 6.460938 56.824219 6.394531 C 56.363281 6.367188 55.785156 6.40625 55.542969 6.484375 Z M 56.902344 8.480469 C 57.480469 8.855469 57.761719 9.722656 57.699219 10.875 C 57.59375 12.582031 56.941406 13.28125 55.53125 13.179688 C 54.964844 13.140625 54.695312 13.046875 54.453125 12.816406 C 54.144531 12.519531 54.132812 12.464844 54.132812 10.808594 C 54.132812 9.125 54.132812 9.113281 54.492188 8.765625 C 54.683594 8.582031 54.980469 8.363281 55.160156 8.296875 C 55.59375 8.117188 56.492188 8.207031 56.902344 8.480469 Z M 56.902344 8.480469 " />
        <path style=" stroke:none;fill-rule:nonzero;;fill-opacity:1;"
            d="M 63.664062 6.574219 C 62.316406 7.066406 61.378906 8 61.035156 9.242188 C 60.855469 9.914062 60.855469 11.429688 61.046875 12.128906 C 61.265625 12.917969 61.945312 13.863281 62.636719 14.332031 C 63.816406 15.132812 65.933594 15.234375 67.292969 14.5625 C 70.230469 13.113281 70.152344 8.027344 67.175781 6.730469 C 66.242188 6.316406 64.574219 6.238281 63.664062 6.574219 Z M 66.152344 8.414062 C 66.714844 8.765625 66.984375 9.359375 67.0625 10.421875 C 67.140625 11.625 66.933594 12.296875 66.382812 12.800781 C 65.996094 13.140625 65.816406 13.203125 65.253906 13.203125 C 63.90625 13.203125 63.304688 12.425781 63.304688 10.679688 C 63.304688 9.460938 63.574219 8.777344 64.1875 8.402344 C 64.714844 8.078125 65.625 8.078125 66.152344 8.414062 Z M 66.152344 8.414062 " />
        <path style=" stroke:none;fill-rule:nonzero;fill-opacity:1;"
            d="M 74.039062 6.613281 C 73.707031 6.78125 73.386719 7.082031 73.195312 7.40625 L 72.898438 7.910156 L 72.808594 7.496094 C 72.769531 7.273438 72.730469 6.9375 72.730469 6.769531 C 72.730469 6.523438 72.679688 6.460938 72.527344 6.523438 C 72.410156 6.5625 71.925781 6.601562 71.4375 6.601562 L 70.550781 6.601562 L 70.550781 10.277344 C 70.550781 12.296875 70.589844 14.136719 70.628906 14.355469 L 70.71875 14.757812 L 72.835938 14.757812 L 72.886719 12.3125 C 72.925781 10.058594 72.949219 9.824219 73.195312 9.488281 C 73.578125 8.972656 74.207031 8.648438 74.847656 8.621094 L 75.414062 8.609375 L 75.488281 8 C 75.542969 7.664062 75.542969 7.144531 75.488281 6.859375 C 75.414062 6.382812 75.375 6.34375 75.003906 6.34375 C 74.773438 6.34375 74.347656 6.472656 74.039062 6.613281 Z M 74.039062 6.613281 " />
        <path style=" stroke:none;fill-rule:nonzero;fill-opacity:1;"
            d="M 29.925781 12.90625 C 29.582031 12.957031 29.453125 13.085938 28.976562 13.890625 C 28.683594 14.40625 27.707031 15.949219 26.835938 17.320312 L 25.230469 19.820312 L 24.746094 19.339844 C 24.398438 18.992188 24.207031 18.898438 24.089844 18.976562 C 23.640625 19.3125 20.371094 21.992188 18.601562 23.46875 C 15.878906 25.734375 14.085938 27.222656 13.828125 27.417969 C 13.597656 27.597656 13.675781 27.652344 10.953125 25.449219 C 10.25 24.878906 9.480469 24.21875 9.234375 23.988281 C 8.992188 23.753906 8.734375 23.558594 8.644531 23.558594 C 8.570312 23.558594 6.59375 24.839844 4.246094 26.421875 L -0.0273438 29.28125 L 0.0273438 30.109375 C 0.0625 30.757812 0.140625 31.003906 0.386719 31.273438 C 1.050781 32 0.527344 31.972656 13.765625 31.972656 L 26 31.972656 L 26.4375 31.675781 C 26.667969 31.519531 27 31.183594 27.15625 30.953125 L 27.449219 30.511719 L 27.449219 18.199219 L 27.925781 17.292969 C 28.375 16.414062 29.707031 14.121094 30.285156 13.230469 C 30.425781 13.007812 30.503906 12.828125 30.441406 12.839844 C 30.386719 12.839844 30.15625 12.878906 29.925781 12.90625 Z M 22.449219 21.539062 C 22.449219 21.566406 22.34375 21.667969 22.230469 21.761719 C 22.023438 21.929688 22.011719 21.914062 22.179688 21.707031 C 22.34375 21.5 22.449219 21.4375 22.449219 21.539062 Z M 21.808594 22.046875 C 21.808594 22.070312 21.679688 22.199219 21.523438 22.34375 L 21.230469 22.589844 L 21.472656 22.292969 C 21.703125 22.019531 21.808594 21.941406 21.808594 22.046875 Z M 21.808594 22.046875 " />
        <path style=" stroke:none;fill-rule:nonzero;fill-opacity:1;"
            d="M 36.777344 19.015625 C 34.042969 19.921875 32.734375 22.574219 33.414062 25.8125 C 33.929688 28.246094 35.777344 29.644531 38.484375 29.644531 C 39.417969 29.644531 40.738281 29.398438 41.472656 29.113281 L 41.816406 28.957031 L 41.792969 26.355469 L 41.753906 23.753906 L 40.214844 23.714844 C 38.125 23.664062 38.148438 23.652344 38.109375 24.53125 L 38.085938 25.242188 L 39.867188 25.242188 L 39.957031 26.214844 C 40.058594 27.222656 39.96875 27.832031 39.726562 27.988281 C 39.636719 28.039062 39.164062 28.089844 38.664062 28.089844 C 36.519531 28.089844 35.238281 26.640625 35.222656 24.207031 C 35.210938 22.460938 35.839844 21.28125 37.121094 20.648438 C 38.007812 20.207031 39.367188 20.179688 40.484375 20.570312 C 40.894531 20.726562 41.253906 20.839844 41.265625 20.839844 C 41.292969 20.839844 41.304688 20.464844 41.304688 20.011719 C 41.304688 19.199219 41.304688 19.183594 40.894531 19.027344 C 40.664062 18.9375 39.804688 18.847656 38.996094 18.820312 C 37.789062 18.78125 37.378906 18.808594 36.777344 19.015625 Z M 36.777344 19.015625 " />
        <path style=" stroke:none;fill-rule:nonzero;fill-opacity:1;"
            d="M 78.734375 19.933594 L 77.863281 20.117188 L 77.863281 22.007812 L 76.707031 22.007812 L 76.707031 23.417969 L 77.261719 23.457031 L 77.800781 23.496094 L 77.863281 25.890625 C 77.914062 27.574219 77.976562 28.386719 78.105469 28.648438 C 78.480469 29.371094 79.582031 29.746094 80.8125 29.578125 L 81.453125 29.488281 L 81.453125 28.066406 L 81.070312 28.128906 C 80.492188 28.257812 79.953125 28 79.800781 27.546875 C 79.722656 27.328125 79.660156 26.304688 79.660156 25.292969 L 79.660156 23.429688 L 81.453125 23.429688 L 81.453125 22.007812 L 79.671875 22.007812 L 79.632812 20.867188 L 79.59375 19.742188 Z M 78.734375 19.933594 " />
        <path style=" stroke:none;fill-rule:nonzero;fill-opacity:1;"
            d="M 45.152344 22.070312 C 44.371094 22.332031 43.742188 22.875 43.292969 23.703125 C 42.804688 24.609375 42.703125 26.097656 43.035156 27.261719 C 43.5 28.867188 44.960938 29.761719 46.882812 29.605469 C 47.78125 29.527344 48.527344 29.347656 48.847656 29.152344 C 48.976562 29.0625 48.988281 28.917969 48.859375 28.441406 C 48.78125 28.105469 48.691406 27.832031 48.679688 27.832031 C 48.667969 27.832031 48.398438 27.921875 48.101562 28.027344 C 46.460938 28.609375 45.050781 27.972656 44.714844 26.5 L 44.640625 26.148438 L 49.230469 26.148438 L 49.320312 25.773438 C 49.460938 25.085938 49.15625 23.765625 48.667969 23.027344 C 48.027344 22.070312 46.460938 21.644531 45.152344 22.070312 Z M 46.988281 23.429688 C 47.28125 23.675781 47.589844 24.363281 47.589844 24.816406 C 47.589844 24.945312 47.207031 24.984375 46.113281 24.984375 C 45.0625 24.984375 44.640625 24.945312 44.640625 24.828125 C 44.640625 24.480469 45.203125 23.546875 45.511719 23.367188 C 46 23.105469 46.601562 23.132812 46.988281 23.429688 Z M 46.988281 23.429688 " />
        <path style=" stroke:none;fill-rule:nonzero;fill-opacity:1;"
            d="M 53.492188 22.070312 C 53.246094 22.1875 52.875 22.421875 52.644531 22.589844 C 52.207031 22.925781 52.078125 22.847656 52.078125 22.253906 C 52.078125 22.03125 51.976562 22.007812 51.21875 22.007812 L 50.347656 22.007812 L 50.414062 25.722656 L 50.476562 29.449219 L 51.347656 29.488281 L 52.207031 29.527344 L 52.207031 27.054688 C 52.207031 25.617188 52.257812 24.480469 52.335938 24.335938 C 52.527344 23.972656 53.515625 23.429688 53.976562 23.429688 C 54.222656 23.429688 54.492188 23.535156 54.644531 23.6875 C 54.890625 23.933594 54.902344 24.117188 54.902344 26.433594 C 54.902344 27.804688 54.941406 29.0625 54.980469 29.230469 C 55.054688 29.5 55.121094 29.527344 55.914062 29.488281 L 56.761719 29.449219 L 56.761719 26.472656 C 56.761719 23.753906 56.734375 23.457031 56.503906 22.992188 C 56.363281 22.707031 56.09375 22.355469 55.890625 22.214844 C 55.425781 21.863281 54.121094 21.785156 53.492188 22.070312 Z M 53.492188 22.070312 " />
        <path style=" stroke:none;fill-rule:nonzero;fill-opacity:1;"
            d="M 60.417969 21.992188 C 59.300781 22.355469 58.339844 23.339844 58.03125 24.441406 C 57.75 25.410156 57.839844 27.054688 58.210938 27.78125 C 58.519531 28.402344 59.25 29.074219 59.878906 29.347656 C 60.800781 29.734375 62.519531 29.695312 63.648438 29.269531 C 63.972656 29.152344 63.972656 29.125 63.84375 28.480469 C 63.738281 27.949219 63.675781 27.832031 63.507812 27.910156 C 62.90625 28.15625 62.328125 28.246094 61.609375 28.195312 C 60.878906 28.140625 60.75 28.089844 60.339844 27.6875 C 60.019531 27.351562 59.867188 27.066406 59.816406 26.691406 L 59.738281 26.148438 L 61.90625 26.136719 C 63.097656 26.121094 64.113281 26.121094 64.175781 26.136719 C 64.328125 26.160156 64.277344 24.542969 64.085938 23.910156 C 63.84375 23.09375 63.445312 22.5625 62.816406 22.238281 C 62.238281 21.953125 60.957031 21.8125 60.417969 21.992188 Z M 62.085938 23.519531 C 62.378906 23.78125 62.507812 24.039062 62.558594 24.441406 L 62.636719 24.996094 L 61.175781 24.957031 L 59.710938 24.917969 L 59.761719 24.59375 C 59.929688 23.339844 61.226562 22.746094 62.085938 23.519531 Z M 62.085938 23.519531 " />
        <path style=" stroke:none;fill-rule:nonzero;fill-opacity:1;"
            d="M 68.371094 22.109375 C 68.125 22.253906 67.78125 22.574219 67.601562 22.835938 C 67.332031 23.25 67.28125 23.289062 67.203125 23.082031 C 67.152344 22.953125 67.101562 22.652344 67.101562 22.421875 L 67.085938 22.007812 L 65.421875 22.007812 L 65.421875 29.515625 L 67.214844 29.515625 L 67.214844 27.273438 C 67.214844 25.269531 67.242188 25.007812 67.472656 24.621094 C 67.769531 24.128906 68.742188 23.636719 69.21875 23.726562 C 69.523438 23.78125 69.523438 23.765625 69.523438 22.835938 L 69.523438 21.878906 L 69.164062 21.878906 C 68.972656 21.878906 68.613281 21.980469 68.371094 22.109375 Z M 68.371094 22.109375 " />
        <path style=" stroke:none;fill-rule:nonzero;fill-opacity:1;"
            d="M 72.027344 22.007812 C 71.746094 22.070312 71.257812 22.214844 70.960938 22.332031 C 70.410156 22.550781 70.398438 22.574219 70.488281 23.027344 C 70.652344 23.972656 70.601562 23.949219 71.421875 23.613281 C 72.976562 22.964844 74.128906 23.339844 74.144531 24.492188 L 74.144531 24.984375 L 73.476562 24.984375 C 72.527344 24.984375 71.410156 25.28125 70.832031 25.667969 C 70.140625 26.121094 69.871094 26.757812 69.9375 27.742188 C 69.988281 28.425781 70.039062 28.554688 70.449219 28.945312 C 71.386719 29.800781 72.808594 29.851562 73.746094 29.0625 C 74.207031 28.660156 74.269531 28.660156 74.269531 29.0625 C 74.269531 29.308594 74.347656 29.386719 74.695312 29.449219 C 74.925781 29.5 75.324219 29.515625 75.566406 29.488281 L 76.003906 29.449219 L 76.003906 26.601562 C 76.003906 23.910156 75.988281 23.726562 75.722656 23.210938 C 75.117188 22.085938 73.796875 21.65625 72.027344 22.007812 Z M 74.144531 26.796875 C 74.144531 27.535156 74.128906 27.574219 73.667969 27.894531 C 72.757812 28.519531 71.707031 28.207031 71.707031 27.328125 C 71.707031 26.523438 72.398438 26.097656 73.796875 26.03125 C 74.144531 26.019531 74.144531 26.03125 74.144531 26.796875 Z M 74.144531 26.796875 " />
        <path style=" stroke:none;fill-rule:nonzero;fill-opacity:1;"
            d="M 84.40625 22.085938 C 82.429688 22.78125 81.542969 24.957031 82.25 27.339844 C 82.46875 28.078125 83.378906 29.0625 84.121094 29.347656 C 85.058594 29.707031 86.597656 29.65625 87.433594 29.21875 C 88.6875 28.570312 89.316406 27.390625 89.316406 25.695312 C 89.316406 24.453125 88.996094 23.585938 88.265625 22.859375 C 87.382812 21.980469 85.6875 21.644531 84.40625 22.085938 Z M 86.558594 23.558594 C 87.738281 24.285156 87.804688 27.144531 86.664062 27.894531 C 86.136719 28.246094 85.316406 28.285156 84.839844 27.988281 C 83.648438 27.222656 83.597656 24.386719 84.777344 23.597656 C 85.316406 23.222656 85.996094 23.222656 86.558594 23.558594 Z M 86.558594 23.558594 " />
        <path style=" stroke:none;fill-rule:nonzero;fill-opacity:1;"
            d="M 93.4375 22.121094 C 93.21875 22.253906 92.859375 22.589844 92.640625 22.859375 L 92.230469 23.367188 L 92.230469 22.976562 C 92.230469 22.085938 92.152344 22.007812 91.253906 22.007812 L 90.433594 22.007812 L 90.433594 29.527344 L 91.371094 29.488281 L 92.292969 29.449219 L 92.359375 27.082031 L 92.421875 24.699219 L 92.898438 24.257812 C 93.179688 24 93.511719 23.820312 93.703125 23.820312 C 94.011719 23.820312 94.027344 23.792969 94.027344 22.847656 C 94.027344 22.316406 93.988281 21.878906 93.9375 21.878906 C 93.871094 21.878906 93.652344 21.992188 93.4375 22.121094 Z M 93.4375 22.121094 " />

    </symbol>
    <symbol id="iconDelete" xmlns="http://www.w3.org/2000/svg"
        viewBox="0 0 24 24"
        fill="#ffffff">

        <path
            d="M7 9.5L12 14.5M12 9.5L7 14.5M19.4922 13.9546L16.5608 17.7546C16.2082 18.2115 16.032 18.44 15.8107 18.6047C15.6146 18.7505 15.3935 18.8592 15.1583 18.9253C14.8928 19 14.6042 19 14.0271 19H6.2C5.07989 19 4.51984 19 4.09202 18.782C3.71569 18.5903 3.40973 18.2843 3.21799 17.908C3 17.4802 3 16.9201 3 15.8V8.2C3 7.0799 3 6.51984 3.21799 6.09202C3.40973 5.71569 3.71569 5.40973 4.09202 5.21799C4.51984 5 5.07989 5 6.2 5H14.0271C14.6042 5 14.8928 5 15.1583 5.07467C15.3935 5.14081 15.6146 5.2495 15.8107 5.39534C16.032 5.55998 16.2082 5.78846 16.5608 6.24543L19.4922 10.0454C20.0318 10.7449 20.3016 11.0947 20.4054 11.4804C20.4969 11.8207 20.4969 12.1793 20.4054 12.5196C20.3016 12.9053 20.0318 13.2551 19.4922 13.9546Z"
            stroke="#000000" stroke-width="2" stroke-linecap="round" stroke-linejoin="round" />

    </symbol>

    <symbol id="iconAdd" xmlns="http://www.w3.org/2000/svg"
        viewBox="0 0 24 24"
        fill="#ffffff">
        <path
            d="M11 8C11 7.44772 11.4477 7 12 7C12.5523 7 13 7.44771 13 8V11H16C16.5523 11 17 11.4477 17 12C17 12.5523 16.5523 13 16 13H13V16C13 16.5523 12.5523 17 12 17C11.4477 17 11 16.5523 11 16V13H8C7.44772 13 7 12.5523 7 12C7 11.4477 7.44771 11 8 11H11V8Z"
            fill="#0F0F0F" />
        <path fill-rule="evenodd" clip-rule="evenodd"
            d="M23 4C23 2.34315 21.6569 1 20 1H4C2.34315 1 1 2.34315 1 4V20C1 21.6569 2.34315 23 4 23H20C21.6569 23 23 21.6569 23 20V4ZM21 4C21 3.44772 20.5523 3 20 3H4C3.44772 3 3 3.44772 3 4V20C3 20.5523 3.44772 21 4 21H20C20.5523 21 21 20.5523 21 20V4Z"
            fill="#0F0F0F" />

    </symbol>
</svg>