<svg aria-hidden="true"
    version="1.1"
    xmlns="http://www.w3.org/2000/svg"
    xmlns:xlink="http://www.w3.org/1999/xlink">
    <defs>
        <symbol id="iconLogo" xmlns="http://www.w3.org/2000/svg"
            viewBox="0 0 900.333 900.333"
            fill="#340000">
            <g transform="scale(3) translate(-860, -320)" fill="#ffffff">
                <path
                    d="m162.1 384.7-28.2 27.8.3 81.9.3 82 21.1-19c11.5-10.4 27-24.2 34.3-30.6l13.2-11.7 6 4.7c9.5 7.4 19.1 15.3 25.1 20.4 3 2.7 5.9 4.8 6.5 4.8.5 0 2.2-1.4 3.9-3.1 2.8-3 7.3-6.9 25.3-21.4 4.8-3.9 15.8-13 24.4-20.3l15.7-13.4-4.4-5.6c-2.5-3.1-4.3-5.9-4.1-6.3.3-.3 3.3-1.4 6.7-2.3 11.5-3.2 55.2-16.8 57.1-17.8 3.4-1.8 1.2-1.7-6.3.2-4.1 1.1-8.3 2-9.2 2-1.6 0-1.7-3.2-2-41.3-.3-37.9-.4-41.5-2.2-44.7-3.6-6.9-11-12.8-14.2-11.6-.8.3-1.3.2-1-.3.3-.5-.8-1.1-2.5-1.5-1.8-.3-33.4-.6-70.4-.6h-67.3l-28.1 27.7zm141.7 21c1.6 2.2 1.5 6.5-.2 8.9-1.4 1.8-3.2 1.9-43.6 2.2-47.9.3-47 .4-47-6.7 0-2.1.6-4.4 1.3-5 1.6-1.2 26.7-1.8 63.7-1.3 21.3.3 24.7.5 25.8 1.9zm-.6 34c1 .9 1.8 3 1.8 4.9 0 6.6 2.5 6.4-66.9 6.4-56.7 0-62.6-.2-64.3-1.7-2.2-2-2.3-7-.1-9.5 1.5-1.7 4.8-1.8 64.6-1.8 57.3 0 63.2.2 64.9 1.7zM270 473c2.4 2.4 2.6 6.7.3 9.2-1.5 1.7-4.3 1.8-48.4 1.8-51.8 0-49.9.3-49.9-6.5 0-6.6-.9-6.5 50.2-6.5 44.5 0 45.9.1 47.8 2zm2 33.2c0 5.8-.4 8.8-.9 7.9-1.4-2.2-12.1-1.7-16.1.7-1.7 1.1-4 1.8-5 1.5-1.4-.4-1.9.2-2.3 2.4-.2 1.5-.5-1.3-.6-6.3 0-5-.4-10.6-.7-12.3l-.6-3.1H272v9.2zM401.2 380.7l-4.2.4v45l.1 44.9H416v-35h5.4c4.3 0 6.1.5 8.1 2.2 1.4 1.3 6.1 9 10.4 17.3l7.7 15 10.2.3c5.6.1 10.2 0 10.2-.2 0-.3-2.4-4.9-5.4-10.3-3-5.4-7.4-13.6-9.8-18.3-2.8-5.5-5.5-9.2-7.6-10.7-3.5-2.3-3.3-2.6 1.1-3.7 1.6-.4 4.8-2.6 7.2-5.1 11.7-11.6 8.6-31.5-6-38.8-5.5-2.7-13.4-3.7-27.8-3.5-7.8.1-16.1.3-18.5.5zm35.6 16.9c1.5 1.2 3.4 4 4.2 6.2 1.3 3.7 1.3 4.7 0 8.4-2.3 6.5-5.5 8.2-16.1 8.6l-8.9.4v-26.4l9 .4c7 .3 9.6.9 11.8 2.4zM745.3 389.2l-8.3 2v7.8c0 8.6-.3 9-6.6 9H727v13h9.8l.4 19.2c.4 21.4 1.2 24.8 6.7 28.7 4.2 3 13.5 4.6 20.2 3.5l5.4-.9.3-6.7.3-6.7-4.8.6c-3.9.4-5.3.1-7.3-1.5-2.5-2-2.5-2.3-2.8-19.1l-.3-17.1H770v-12.9l-7.2-.3-7.3-.3-.3-10.3c-.1-5.6-.6-10.2-1-10.1-.4.1-4.4 1-8.9 2.1zM487.3 408c-4 1-8.1 2.4-9.2 2.9-2 1.1-2 1.3.4 11.8l.5 2.2 4.8-2.1c2.9-1.3 7.6-2.3 12.4-2.6 7.5-.4 7.8-.4 10.8 2.6 2 2.1 3 4 3 6.1 0 3-.2 3.1-4.2 3.1-13.6.1-27.3 5-31.5 11.3-5.1 7.4-3.9 18.1 2.6 24 8.3 7.5 21.3 7.5 29.9.1l4-3.4.6 3.5.7 3.5h15.4l-.3-23.7c-.3-21.4-.5-24.1-2.4-28.5-1.1-2.7-3.4-5.9-5-7.3-6.5-5.5-19.6-6.9-32.5-3.5zm22.7 39.4c0 4.7-.4 5.8-3 8.5-5.4 5.3-13.3 5.3-17.3 0-4.1-5.6 1.1-11.6 11-12.9 10-1.3 9.3-1.6 9.3 4.4zM567 407.1c-1.9.6-5.2 2.4-7.2 4s-3.9 2.9-4.2 2.9c-.3 0-.6-1.4-.6-3v-3h-17v91h18v-15.6c0-8.6.3-15.4.8-15.2 8.7 4.5 10.7 5 17.6 4.6 11.9-.8 19.4-5.9 24.5-16.7 2.4-5.1 2.6-6.7 2.6-17.6 0-10.4-.3-12.7-2.3-17-4.5-9.8-11.5-14.6-22.2-15.1-3.6-.2-8.1.1-10 .7zm10.6 15.4c4.5 2.9 6.7 9.6 6.2 18.5s-2.8 13.6-8.1 16.5c-4.7 2.5-13.8 1.7-17.2-1.5-2.4-2.3-2.5-2.8-2.5-15.5 0-13 0-13.1 2.8-15.8 1.5-1.4 3.8-3.1 5.2-3.6 3.4-1.4 10.4-.7 13.6 1.4zM630.3 407.8c-10.5 3.8-17.8 11-20.5 20.6-1.4 5.2-1.4 16.9.1 22.3 1.7 6.1 7 13.4 12.4 17 9.2 6.2 25.7 7 36.3 1.8 22.9-11.2 22.3-50.5-.9-60.5-7.3-3.2-20.3-3.8-27.4-1.2zm19.4 14.2c4.4 2.7 6.5 7.3 7.1 15.5.6 9.3-1 14.5-5.3 18.4-3 2.6-4.4 3.1-8.8 3.1-10.5 0-15.2-6-15.2-19.5 0-9.4 2.1-14.7 6.9-17.6 4.1-2.5 11.2-2.5 15.3.1zM711.2 408.1c-2.6 1.3-5.1 3.6-6.6 6.1l-2.3 3.9-.7-3.2c-.3-1.7-.6-4.3-.6-5.6 0-1.9-.4-2.4-1.6-1.9-.9.3-4.7.6-8.5.6H684v29.2c0 16.1.3 30.3.6 31.5.6 2.2 1.2 2.3 8.9 2.3h8.3l.4-18.9c.3-17.4.5-19.2 2.4-21.8 3-4 7.9-6.5 12.9-6.7l4.4-.1.6-4.7c.4-2.6.4-6.6 0-8.8-.6-3.7-.9-4-3.8-4-1.8 0-5.1 1-7.5 2.1z" />

                <path
                    d="M367.3 456.7c-2.7.4-3.7 1.4-7.4 7.6-2.3 4-9.9 15.9-16.7 26.5l-12.5 19.3-3.8-3.7c-2.7-2.7-4.2-3.4-5.1-2.8-3.5 2.6-29 23.3-42.8 34.7-21.2 17.5-35.2 29-37.2 30.5-1.8 1.4-1.2 1.8-22.4-15.2-5.5-4.4-11.5-9.5-13.4-11.3-1.9-1.8-3.9-3.3-4.6-3.3-.6 0-16 9.9-34.3 22.1l-33.3 22.1.4 6.4c.3 5 .9 6.9 2.8 9 5.2 5.6 1.1 5.4 104.3 5.4h95.4l3.4-2.3c1.8-1.2 4.4-3.8 5.6-5.6l2.3-3.4v-95.1l3.7-7c3.5-6.8 13.9-24.5 18.4-31.4 1.1-1.7 1.7-3.1 1.2-3-.4 0-2.2.3-4 .5zM309 523.4c0 .2-.8 1-1.7 1.7-1.6 1.3-1.7 1.2-.4-.4 1.3-1.6 2.1-2.1 2.1-1.3zm-5 3.9c0 .2-1 1.2-2.2 2.3l-2.3 1.9 1.9-2.3c1.8-2.1 2.6-2.7 2.6-1.9zM420.7 503.9c-21.3 7-31.5 27.5-26.2 52.5 4 18.8 18.4 29.6 39.5 29.6 7.3 0 17.6-1.9 23.3-4.1l2.7-1.2-.2-20.1-.3-20.1-12-.3c-16.3-.4-16.1-.5-16.4 6.3l-.2 5.5h13.9l.7 7.9c.7 8 .1 12-1.9 13.3-.6.4-4.3.8-8.2.8-16.7 0-26.7-11.2-26.8-30-.1-13.5 4.8-22.6 14.8-27.5 6.9-3.4 17.5-3.6 26.2-.6 3.2 1.2 6 2.1 6.1 2.1.2 0 .3-2.9.3-6.4 0-6.3 0-6.4-3.2-7.6-1.8-.7-8.5-1.4-14.8-1.6-9.4-.3-12.6-.1-17.3 1.5zM747.8 511l-6.8 1.4V527h-9v10.9l4.3.3 4.2.3.5 18.5c.4 13 .9 19.3 1.9 21.3 2.9 5.6 11.5 8.5 21.1 7.2l5-.7v-11.1l-3 .6c-4.5 1-8.7-1-9.9-4.5-.6-1.7-1.1-9.6-1.1-17.4V538h14v-11h-13.9l-.3-8.8-.3-8.7-6.7 1.5zM486 527.5c-6.1 2-11 6.2-14.5 12.6-3.8 7-4.6 18.5-2 27.5 3.6 12.4 15 19.3 30 18.1 7-.6 12.8-2 15.3-3.5 1-.7 1.1-1.8.1-5.5-.6-2.6-1.3-4.7-1.4-4.7-.1 0-2.2.7-4.5 1.5-12.8 4.5-23.8-.4-26.4-11.8l-.6-2.7h35.8l.7-2.9c1.1-5.3-1.3-15.5-5.1-21.2-5-7.4-17.2-10.7-27.4-7.4zm14.3 10.5c2.3 1.9 4.7 7.2 4.7 10.7 0 1-3 1.3-11.5 1.3-8.2 0-11.5-.3-11.5-1.2 0-2.7 4.4-9.9 6.8-11.3 3.8-2 8.5-1.8 11.5.5zM551 527.5c-1.9.9-4.8 2.7-6.6 4-3.4 2.6-4.4 2-4.4-2.6 0-1.7-.8-1.9-6.7-1.9h-6.8l.5 28.7.5 28.8 6.8.3 6.7.3V566c0-11.1.4-19.9 1-21 1.5-2.8 9.2-7 12.8-7 1.9 0 4 .8 5.2 2 1.9 1.9 2 3.3 2 22.2 0 11.2.4 20.9.9 21.6.5.9 2.7 1.2 7.2 1l6.4-.3v-23c0-21-.2-23.3-2-26.9-1.1-2.2-3.2-4.9-4.8-6-3.6-2.7-13.8-3.3-18.7-1.1zM605 526.9c-8.7 2.8-16.2 10.4-18.6 18.9-2.2 7.5-1.5 20.2 1.4 25.8 2.4 4.8 8.1 10 13 12.1 7.2 3 20.6 2.7 29.4-.6 2.5-.9 2.5-1.1 1.5-6.1-.8-4.1-1.3-5-2.6-4.4-4.7 1.9-9.2 2.6-14.8 2.2-5.7-.4-6.7-.8-9.9-3.9-2.5-2.6-3.7-4.8-4.1-7.7l-.6-4.2 16.9-.1c9.3-.1 17.2-.1 17.7 0 1.2.2.8-12.3-.7-17.2-1.9-6.3-5-10.4-9.9-12.9-4.5-2.2-14.5-3.3-18.7-1.9zm13 11.8c2.3 2 3.3 4 3.7 7.1l.6 4.3-11.4-.3-11.4-.3.4-2.5c1.3-9.7 11.4-14.3 18.1-8.3zM667 527.8c-1.9 1.1-4.6 3.6-6 5.6-2.1 3.2-2.5 3.5-3.1 1.9-.4-1-.8-3.3-.8-5.1l-.1-3.2h-13v58h14v-17.3c0-15.5.2-17.5 2-20.5 2.3-3.8 9.9-7.6 13.6-6.9 2.4.4 2.4.3 2.4-6.9V526h-2.8c-1.5 0-4.3.8-6.2 1.8zM695.5 527c-2.2.5-5.8 1.5-8 2.3-3.6 1.3-4 1.8-3.8 4.6 0 1.8.4 4.2.7 5.5l.6 2.4 5.7-2.4c12.2-5 21.2-2.1 21.3 6.8v3.8h-5.2c-7.4 0-16.1 2.3-20.6 5.3-5.4 3.5-7.5 8.4-7 16 .4 5.3.8 6.3 4 9.3 7.3 6.6 18.4 7 25.7.9 3.6-3.1 4.1-3.1 4.1 0 0 1.9.6 2.5 3.3 3 1.8.4 4.9.5 6.8.3l3.4-.3v-22c0-20.8-.1-22.2-2.2-26.2-4.7-8.7-15.1-12.1-28.8-9.3zm16.5 37c0 5.7-.1 6-3.7 8.5-7.1 4.8-15.3 2.4-15.3-4.4 0-6.2 5.4-9.5 16.3-10 2.7-.1 2.7 0 2.7 5.9zM791.9 527.6c-18.7 5.7-25.1 33.9-11.3 49.3 5.9 6.5 11.3 8.6 21.9 8.5 6.6-.1 8.9-.5 13.1-2.7 9.8-5 14.7-14.1 14.7-27.2 0-9.6-2.5-16.3-8.2-21.9-6.9-6.7-19.6-9.3-30.2-6zm16.1 10.9c4.6 2.4 7.3 7.8 7.8 16 .8 12.2-3.8 19.2-13.1 20.2-8.3.8-13.8-5.8-14.4-17.2-.4-8.2 2.1-15.2 6.6-18.2 3.9-2.6 8.9-3 13.1-.8zM862.4 527.9c-1.7 1-4.5 3.6-6.2 5.7l-3.2 3.9v-3c0-6.9-.6-7.5-7.6-7.5H839v58.1l7.3-.3 7.2-.3.5-18.3.5-18.4 3.6-3.3c2.7-2.4 4.9-3.5 8.8-4l5.2-.7-.3-6.6c-.3-6.6-.3-6.7-3.3-7-1.6-.1-4.4.6-6.1 1.7z" />
            </g>
        </symbol>
    </defs>
</svg>